<svg width="80" height="81" viewBox="0 0 80 81" fill="none" xmlns="http://www.w3.org/2000/svg">
<g clip-path="url(#clip0_1849_5593)">
<path d="M78.7651 53.4164L74.8398 50.2156C73.4059 49.0457 71.2873 49.2613 70.118 50.6952L69.0966 51.9483L62.2345 46.3201C62.4898 45.7827 62.6544 45.1943 62.7035 44.5804C62.8079 43.2882 62.4109 41.9991 61.6157 41.0442C61.2038 40.5496 60.6987 40.1508 60.1376 39.8637C61.0267 38.4149 61.1739 36.5983 60.5601 35.3185C59.7276 33.5807 58.3589 32.9383 57.2729 32.6593C58.408 31.0458 59.463 28.7186 57.3692 26.203C56.5541 25.2232 55.4643 24.6442 54.3311 24.4907C54.8256 23.053 54.7243 21.4824 53.6539 20.141C52.9232 19.2259 51.7633 18.6251 50.4704 18.4934C49.1781 18.3624 47.9511 18.7128 47.0068 19.4757L41.1139 17.5237C39.4999 16.99 38.0522 17.064 36.8079 17.7455C35.6572 18.3761 34.7458 19.4993 34.0867 21.0949L32.1899 19.4926C31.2449 18.6937 30.0402 18.3103 28.8014 18.4166C27.5619 18.5209 26.4392 19.0994 25.6403 20.0443C24.8426 20.9892 24.4599 22.1927 24.5643 23.4315C24.5935 23.7757 24.6624 24.1106 24.7625 24.4324C23.6535 24.6032 22.6557 25.1556 21.9289 26.021C20.741 27.4332 20.5428 29.3535 21.2535 30.9378C20.3384 31.1789 19.5213 31.6902 18.9014 32.4301C17.4383 34.176 17.4793 36.7026 18.8815 38.4068C18.1372 38.6814 17.473 39.143 16.9499 39.7693C15.7054 41.2597 15.552 43.3199 16.4006 44.9533L9.70951 50.5243C8.51417 49.2575 6.52856 49.0984 5.15995 50.2155L1.23338 53.4163C-0.19991 54.585 -0.416104 56.7029 0.753755 58.1369L17.2661 78.3868C17.8302 79.0796 18.6342 79.512 19.5276 79.602C19.6438 79.6138 19.7599 79.62 19.8755 79.62C20.6453 79.62 21.3852 79.3585 21.9865 78.8677L25.9131 75.6668C27.3464 74.4982 27.5632 72.3796 26.3934 70.9463L24.3164 68.399L35.5696 59.3867C36.1474 59.4495 36.714 59.5178 37.2682 59.5849C39.0898 59.8048 40.8673 60.0155 42.6087 59.9527L54.5709 69.7652L53.6085 70.9456C52.4399 72.3789 52.6549 74.4974 54.0881 75.6661L58.0147 78.867C58.6174 79.3584 59.3573 79.6206 60.127 79.6206C60.2426 79.6206 60.3588 79.615 60.4749 79.6026C61.3684 79.5119 62.1717 79.0801 62.7364 78.3873L79.2488 58.1358C80.4155 56.7025 80.1984 54.5851 78.7651 53.4164ZM37.9709 19.8732C38.6096 19.5235 39.3881 19.5079 40.3504 19.8267L44.8074 21.3034L39.5315 25.6959L36.0566 22.761C36.5251 21.2991 37.1794 20.3068 37.9709 19.8732ZM27.4911 21.6091C27.9303 21.0891 28.5578 20.8213 29.191 20.8213C29.698 20.8213 30.208 20.9928 30.623 21.3457L38.3991 27.9139C38.8501 28.2947 39.1253 28.8315 39.175 29.4254C39.226 30.02 39.0433 30.5953 38.6625 31.0469C38.2816 31.498 37.7455 31.7732 37.1509 31.8229C36.5563 31.8714 35.981 31.6912 35.5305 31.3091L27.7545 24.7409C27.3047 24.3601 27.0276 23.8239 26.9779 23.2293C26.9276 22.6354 27.1115 22.0602 27.4911 21.6091ZM23.7821 27.5828C24.1617 27.1317 24.6966 26.8565 25.2868 26.8068C25.8739 26.7583 26.4511 26.9404 26.9004 27.3206L33.3157 32.7648C34.252 33.5594 34.3707 34.9716 33.5791 35.9109C33.2008 36.362 32.6659 36.6372 32.075 36.6869C31.4786 36.7385 30.9107 36.5539 30.4615 36.1731L30.149 35.9078L25.4329 31.8844C25.3385 31.8036 25.2384 31.7297 25.139 31.657L24.045 30.7288C23.1106 29.9342 22.9918 28.5227 23.7821 27.5828ZM20.7583 33.9887C21.1354 33.5377 21.6679 33.2625 22.2562 33.2134C22.3189 33.2078 22.3817 33.2059 22.4432 33.2059C22.8961 33.2059 23.3267 33.3513 23.6957 33.611L28.6044 37.7761L28.9797 38.0961C29.9165 38.8951 30.0346 40.3134 29.2443 41.2578C28.8672 41.7089 28.3348 41.9841 27.7464 42.0332C27.1692 42.0822 26.6095 41.9033 26.1659 41.5349L23.4764 39.2274C23.4099 39.1703 23.3391 39.12 23.2689 39.0665L21.023 37.1498C20.0861 36.3509 19.9668 34.933 20.7583 33.9887ZM18.81 41.3235C19.1865 40.8725 19.7152 40.5985 20.3016 40.5494C20.8434 40.5041 21.3653 40.6668 21.7933 40.9918L24.5692 43.3601C24.5866 43.3744 24.6046 43.3875 24.622 43.4011L25.9963 44.5797C26.9325 45.383 27.0506 46.8083 26.2591 47.7551C25.8826 48.2062 25.3539 48.4801 24.7686 48.5292C24.1852 48.5764 23.6161 48.3938 23.1707 48.0123L19.0746 44.4977C18.1364 43.6956 18.0185 42.271 18.81 41.3235ZM24.3785 73.79L20.452 76.9908C20.2612 77.1461 20.0158 77.2188 19.7704 77.1927C19.5213 77.1672 19.2976 77.0479 19.1423 76.8572L2.63156 56.6057C2.30724 56.2074 2.36689 55.6197 2.76513 55.2954L6.6917 52.0945C6.86317 51.9535 7.07254 51.8858 7.27881 51.8858C7.54844 51.8858 7.81746 52.0032 8.00136 52.2281L8.6301 52.9997L21.654 68.9741L21.6584 68.9791L24.5118 72.4788C24.8361 72.877 24.7768 73.465 24.3785 73.79ZM37.5577 57.179C36.8314 57.092 36.0871 57.0019 35.3199 56.9243C35.0043 56.8907 34.6881 56.9858 34.4408 57.184L22.7824 66.5212L11.2602 52.389L18.0031 46.7751L21.5921 49.8541C22.434 50.5766 23.4827 50.9637 24.5792 50.9637C24.7084 50.9637 24.8383 50.9581 24.9681 50.9476C26.2051 50.845 27.3239 50.2641 28.1198 49.3118C29.3195 47.8747 29.504 45.9089 28.756 44.3067C29.6693 44.065 30.4844 43.5543 31.1039 42.815C31.9966 41.7489 32.3265 40.3927 32.1327 39.1096C32.1818 39.1072 32.2309 39.1078 32.28 39.1034C33.5188 38.9991 34.6402 38.42 35.4367 37.4719C36.2295 36.5301 36.5793 35.3609 36.5165 34.2176C36.6638 34.2313 36.8085 34.2555 36.957 34.2555C37.09 34.2555 37.2235 34.25 37.3571 34.2394C38.5966 34.135 39.7193 33.5566 40.5169 32.6117C41.3146 31.6667 41.6986 30.4633 41.5936 29.2232C41.5426 28.6237 41.3792 28.0527 41.1189 27.5308L48.5097 21.377C48.9489 21.0123 49.5746 20.8415 50.2244 20.908C50.8631 20.9732 51.4365 21.2522 51.7596 21.656C52.6903 22.8209 51.9603 24.4928 50.7587 25.5403C50.2586 25.9764 50.2026 26.7344 50.6332 27.2402C51.0631 27.7453 51.8198 27.8099 52.3312 27.3855C53.2793 26.5959 54.6752 26.7574 55.5059 27.7571C56.7174 29.2121 56.1204 30.2783 54.5709 32.2029L54.4665 32.3328C53.9341 32.9963 54.0441 33.5772 54.1565 33.863C54.469 34.6576 55.2723 34.7744 55.8594 34.8601C56.9125 35.013 57.8296 35.2317 58.3743 36.3686C58.6967 37.0415 58.4663 38.7817 57.1398 39.4961C56.6366 39.767 56.3918 40.3522 56.5509 40.9014C56.7099 41.4507 57.2262 41.816 57.8003 41.7731C58.5427 41.7184 59.2783 42.0285 59.7522 42.5982C60.1455 43.0697 60.34 43.7227 60.2866 44.3875C60.2337 45.0479 59.9393 45.6462 59.4795 46.0295L48.1331 55.4742C45.0055 58.0792 41.7184 57.6816 37.5577 57.179ZM45.8145 59.4497C47.1248 59.0534 48.4146 58.3936 49.6845 57.3368L60.6805 48.1822L67.563 53.8277L56.1004 67.8872L45.8145 59.4497ZM77.3664 56.6055L60.8556 76.857C60.7003 77.0478 60.4773 77.167 60.2275 77.1925C59.9803 77.2186 59.7361 77.1459 59.5447 76.9906L55.6182 73.7898C55.2199 73.4655 55.1609 72.8771 55.4852 72.4795L71.9944 52.2295C72.3205 51.8307 72.9077 51.7717 73.3059 52.096L77.2312 55.2968C77.6301 55.6199 77.6913 56.2079 77.3664 56.6055ZM37.9194 7.77146V1.73751C37.9194 1.06778 38.4618 0.525391 39.1315 0.525391C39.8012 0.525391 40.3436 1.06778 40.3436 1.73751V7.77146C40.3436 8.4412 39.8012 8.98358 39.1315 8.98358C38.4618 8.9842 37.9194 8.44058 37.9194 7.77146ZM18.646 8.37161C18.3117 7.79196 18.5105 7.05015 19.0896 6.71593C19.6705 6.37981 20.4104 6.57987 20.7453 7.15953L23.7616 12.385C24.0959 12.9647 23.897 13.7065 23.318 14.0407C23.1273 14.1507 22.9179 14.2035 22.7135 14.2035C22.2948 14.2035 21.8872 13.986 21.6617 13.5971L18.646 8.37161ZM4.82743 22.0976C5.16169 21.5179 5.90163 21.3179 6.48312 21.654L11.7086 24.6703C12.2883 25.0046 12.4865 25.7464 12.1522 26.326C11.9267 26.7149 11.5204 26.9324 11.1004 26.9324C10.8948 26.9324 10.6866 26.8796 10.4959 26.7696L5.27038 23.7533C4.69197 23.4184 4.49382 22.6772 4.82743 22.0976ZM67.6386 23.6756C67.3043 23.096 67.5031 22.3548 68.0822 22.02L73.3077 19.0023C73.8886 18.6669 74.6285 18.8663 74.9634 19.4459C75.2976 20.0256 75.0988 20.7668 74.5198 21.1016L69.2942 24.1192C69.1035 24.2292 68.8941 24.282 68.6897 24.282C68.271 24.2814 67.8641 24.0646 67.6386 23.6756ZM54.9092 10.8543L57.9255 5.62882C58.2598 5.04917 58.9997 4.84912 59.5812 5.18522C60.1608 5.51947 60.359 6.26127 60.0248 6.84091L57.0085 12.0664C56.7842 12.4553 56.3766 12.6728 55.9566 12.6728C55.751 12.6728 55.5429 12.62 55.3521 12.51C54.7737 12.1758 54.5749 11.434 54.9092 10.8543Z" fill="black"/>
</g>
<defs>
<clipPath id="clip0_1849_5593">
<rect width="80" height="80" fill="white" transform="translate(0 0.525391)"/>
</clipPath>
</defs>
</svg>
