<svg width="32" height="33" viewBox="0 0 32 33" fill="none" xmlns="http://www.w3.org/2000/svg">
<path d="M11 20.731C14.5899 20.731 17.5 17.8208 17.5 14.231C17.5 10.6411 14.5899 7.73096 11 7.73096C7.41015 7.73096 4.5 10.6411 4.5 14.231C4.5 17.8208 7.41015 20.731 11 20.731Z" stroke="#434140" stroke-width="2" stroke-miterlimit="10"/>
<path d="M19.425 7.96846C19.9996 7.81262 20.5921 7.73277 21.1875 7.73096C22.9114 7.73096 24.5647 8.41578 25.7837 9.63476C27.0027 10.8537 27.6875 12.507 27.6875 14.231C27.6875 15.9549 27.0027 17.6082 25.7837 18.8272C24.5647 20.0461 22.9114 20.731 21.1875 20.731" stroke="#434140" stroke-width="2" stroke-linecap="round" stroke-linejoin="round"/>
<path d="M2 25.4059C3.01493 23.9616 4.36255 22.7828 5.92901 21.9691C7.49547 21.1553 9.23477 20.7305 11 20.7305C12.7652 20.7305 14.5045 21.1553 16.071 21.9691C17.6375 22.7828 18.9851 23.9616 20 25.4059" stroke="#434140" stroke-width="2" stroke-linecap="round" stroke-linejoin="round"/>
<path d="M21.1875 20.731C22.9529 20.7299 24.6925 21.1542 26.2592 21.9679C27.8258 22.7817 29.1733 23.961 30.1875 25.406" stroke="#434140" stroke-width="2" stroke-linecap="round" stroke-linejoin="round"/>
</svg>
