<?xml version="1.0" encoding="utf-8"?>
<!-- Generator: Adobe Illustrator 27.6.1, SVG Export Plug-In . SVG Version: 6.00 Build 0)  -->
<svg version="1.1" id="Layer_1" xmlns="http://www.w3.org/2000/svg" xmlns:xlink="http://www.w3.org/1999/xlink" x="0px" y="0px"
	 viewBox="0 0 100 100" style="enable-background:new 0 0 100 100;" xml:space="preserve">
<style type="text/css">
	.st0{fill:none;}
</style>
<rect class="st0" width="100" height="100"/>
<g>
	<path d="M4,72.2c-0.8,0-1.5,0.7-1.5,1.5s0.7,1.5,1.5,1.5h51c0.5,0,1-0.3,1.3-0.7L65.4,62c0.5-0.7,0.3-1.6-0.3-2.1
		c-0.7-0.5-1.6-0.3-2.1,0.3l-8.8,12L4,72.2L4,72.2z"/>
	<path d="M56.2,72.9c-0.4-0.7-1.3-0.9-2-0.5s-0.9,1.3-0.5,2l6.9,11.9c0.4,0.7,1.3,0.9,2,0.5c0.7-0.4,0.9-1.3,0.5-2
		C63.1,84.8,56.2,72.9,56.2,72.9z"/>
	<path d="M18.3,74.4c0.4-0.7,0.2-1.6-0.5-2c-0.7-0.4-1.6-0.2-2,0.5L8.9,84.8c-0.4,0.7-0.2,1.6,0.5,2c0.7,0.4,1.6,0.2,2-0.5
		L18.3,74.4z"/>
	<path d="M74.2,85.8c0.2,0.8,1,1.3,1.8,1c0.8-0.2,1.3-1,1-1.8L64,36.4c-0.2-0.8-1-1.3-1.8-1c-0.8,0.2-1.3,1-1,1.8L74.2,85.8z"/>
	<path d="M63.2,38.3c-0.8,0.2-7.7,2.3-10.2,7.8l0,0c-0.3,0.7-1.2,1.1-2,0.7c-0.1,0-0.2-0.1-0.3-0.2c-1.1-0.7-2.5-1.1-3.9-1.3
		c-2.5-0.4-5.2-0.1-7.5,0.7c-2.2,0.8-4.1,1.9-4.9,3.3c-0.3,0.4-0.4,0.8-0.5,1.3l-1.5-0.2l1.5,0.2c-0.1,0.8-0.9,1.4-1.7,1.2
		c-0.6-0.1-1-0.5-1.2-1c-0.5-1.3-8.6-24.2,25.5-36.9l0,0c0.1,0,0.2-0.1,0.4-0.1c36.8-6.2,40.5,19.2,40.5,19.3l0,0
		c0.1,0.8-0.4,1.6-1.2,1.7c-0.6,0.1-1.1-0.2-1.4-0.6c-0.3-0.3-0.6-0.6-1-0.8c-1.5-0.8-3.7-0.9-6-0.4c-2.4,0.5-4.9,1.5-6.8,3.1
		c-1.1,0.9-2.1,2-2.7,3.2l-1.3-0.7l1.3,0.7c-0.4,0.7-1.3,1-2,0.6c-0.1-0.1-0.2-0.1-0.3-0.2C70.8,36.2,63.3,38.3,63.2,38.3L63.2,38.3
		C63.2,38.3,63.2,38.3,63.2,38.3L63.2,38.3L63.2,38.3z M51,43.5c3.4-5.6,10.4-7.7,11.4-8c0,0,0.1,0,0.1,0l0,0l0,0l0,0
		c0,0,7.8-2.2,14,1.2c0.7-1,1.7-2,2.7-2.8c2.3-1.9,5.3-3.1,8.1-3.7c2.2-0.4,4.4-0.4,6.3,0.1c-2.5-6.1-10.6-17.6-36-13.4
		c-24.1,9-25.4,23.1-24.5,29.6c1.3-1.4,3.2-2.5,5.4-3.2c2.7-0.9,5.9-1.3,8.9-0.9C48.6,42.6,49.9,42.9,51,43.5L51,43.5L51,43.5z"/>
</g>
</svg>
