<?xml version="1.0" standalone="no"?>
<!DOCTYPE svg PUBLIC "-//W3C//DTD SVG 20010904//EN"
 "http://www.w3.org/TR/2001/REC-SVG-20010904/DTD/svg10.dtd">
<svg version="1.0" xmlns="http://www.w3.org/2000/svg"
 width="300.000000pt" height="300.000000pt" viewBox="0 0 300.000000 300.000000"
 preserveAspectRatio="xMidYMid meet">
<metadata>
Created by potrace 1.10, written by Peter Selinger 2001-2011
</metadata>
<g transform="translate(0.000000,300.000000) scale(0.100000,-0.100000)"
fill="#000000" stroke="none">
<path d="M1255 1741 l0 -101 52 0 c76 0 108 45 66 92 -9 11 -11 18 -5 18 17 0
14 55 -3 70 -9 7 -37 15 -63 18 l-47 4 0 -101z m83 60 c23 -14 10 -46 -21 -49
-24 -3 -27 0 -27 27 0 32 19 41 48 22z m16 -91 c17 -17 -3 -40 -34 -40 -27 0
-30 3 -30 31 0 29 2 31 28 24 15 -3 31 -10 36 -15z"/>
<path d="M1420 1740 l0 -100 54 0 c36 0 60 5 70 16 17 16 21 55 9 68 -5 4 -8
26 -8 49 0 34 -4 43 -25 54 -14 7 -42 13 -62 13 l-38 0 0 -100z m88 61 c23
-14 10 -46 -21 -49 -24 -3 -27 0 -27 27 0 32 19 41 48 22z m7 -85 c27 -19 13
-46 -25 -46 -27 0 -30 3 -30 30 0 34 22 40 55 16z"/>
<path d="M1660 1734 c0 -95 2 -105 18 -102 13 3 16 12 15 46 l-3 42 40 0 c29
0 40 4 40 15 0 11 -11 15 -40 15 -36 0 -40 3 -40 25 0 23 4 25 45 25 38 0 45
3 45 20 0 18 -7 20 -60 20 l-60 0 0 -106z"/>
<path d="M1810 1735 c0 -87 3 -105 15 -105 12 0 15 18 15 105 0 87 -3 105 -15
105 -12 0 -15 -18 -15 -105z"/>
<path d="M2025 1830 c-4 -7 -3 -16 3 -22 14 -14 45 -2 40 15 -6 16 -34 21 -43
7z"/>
<path d="M1042 1802 c-18 -9 -72 -41 -120 -70 l-87 -54 -70 22 c-194 59 -220
64 -244 48 -22 -16 -21 -17 66 -84 49 -38 90 -73 92 -77 1 -5 -24 -27 -56 -49
l-57 -40 -63 31 c-62 30 -80 31 -111 6 -2 -1 17 -22 42 -46 25 -24 46 -48 46
-54 0 -5 -12 -19 -27 -31 -16 -12 -25 -25 -22 -29 16 -15 187 38 277 85 52 28
97 50 99 50 2 0 2 -49 -2 -110 -3 -60 -3 -110 1 -110 3 0 19 8 36 18 25 15 34
34 71 150 l41 133 73 45 c64 40 153 124 153 145 0 16 -45 39 -75 39 -16 -1
-45 -9 -63 -18z m88 -11 c0 -5 -14 -14 -31 -20 -40 -14 -39 -14 -39 3 0 13 17
20 58 25 6 0 12 -3 12 -8z m-60 -71 c0 -5 -29 -28 -64 -50 -75 -47 -85 -61
-116 -155 -28 -88 -36 -96 -43 -47 -4 21 -16 47 -27 57 -24 22 -16 24 -178
-50 -83 -38 -105 -45 -117 -35 -8 7 -15 18 -15 26 0 10 6 11 29 3 23 -8 36 -7
60 5 47 25 111 90 111 114 0 12 -19 39 -42 62 -23 22 -37 40 -30 40 7 0 54
-12 106 -27 l94 -26 98 56 c77 44 102 54 116 46 10 -5 18 -14 18 -19z"/>
<path d="M2155 1780 c-11 -4 -30 -6 -43 -3 -23 5 -23 4 -20 -68 2 -58 6 -74
18 -74 11 0 15 13 16 49 1 53 17 75 48 63 12 -5 16 -20 16 -60 0 -42 3 -54 15
-54 13 0 15 12 13 65 -3 71 -24 98 -63 82z"/>
<path d="M1881 1729 c11 -29 24 -60 30 -70 7 -14 5 -27 -6 -49 -15 -28 -14
-30 3 -30 15 0 28 23 59 100 35 87 38 100 22 100 -12 0 -22 -15 -34 -51 -19
-56 -25 -55 -45 9 -9 29 -19 42 -31 42 -18 0 -18 -2 2 -51z"/>
<path d="M2030 1707 c0 -59 3 -74 15 -74 12 0 15 15 15 74 0 58 -3 73 -15 73
-12 0 -15 -15 -15 -73z"/>
<path d="M2266 1761 c-22 -24 -21 -84 2 -104 22 -20 63 -22 80 -5 9 9 12 7 12
-10 0 -30 -43 -51 -65 -32 -12 10 -19 10 -28 1 -17 -17 8 -31 54 -31 56 0 69
22 69 117 l0 79 -54 2 c-40 1 -58 -3 -70 -17z m88 -33 c15 -25 -3 -52 -38 -56
-30 -4 -41 15 -32 54 5 20 12 25 33 22 14 -2 31 -11 37 -20z"/>
<path d="M1273 1478 c-17 -46 -34 -91 -38 -100 -5 -14 -2 -18 13 -18 13 0 22
9 26 25 6 22 12 25 50 25 38 0 45 -3 50 -25 4 -14 13 -25 21 -25 20 0 20 2
-18 105 -46 123 -61 124 -104 13z m74 -34 c-3 -3 -16 -4 -30 -2 -25 3 -25 3
-9 42 l15 39 15 -37 c8 -20 12 -39 9 -42z"/>
<path d="M1530 1525 c0 -33 -1 -34 -25 -23 -22 10 -30 8 -53 -9 -35 -26 -40
-70 -12 -106 22 -28 63 -36 76 -16 4 8 9 8 17 0 22 -22 26 -9 29 89 3 90 1
100 -14 100 -14 0 -18 -8 -18 -35z m-11 -59 c7 -8 11 -27 9 -43 -3 -24 -8 -28
-33 -28 -25 0 -30 4 -33 28 -4 30 12 57 33 57 7 0 18 -6 24 -14z"/>
<path d="M2060 1520 c0 -11 -7 -20 -15 -20 -8 0 -15 -4 -15 -10 0 -5 7 -10 15
-10 11 0 15 -12 15 -48 0 -53 12 -72 47 -72 28 0 31 26 3 33 -16 4 -20 14 -20
46 0 34 3 41 20 41 11 0 20 4 20 9 0 5 -9 11 -20 14 -11 3 -20 12 -20 21 0 9
-7 16 -15 16 -8 0 -15 -9 -15 -20z"/>
<path d="M1602 1502 c-10 -7 -8 -22 10 -73 32 -88 52 -87 85 4 13 38 22 71 19
75 -11 10 -31 -18 -47 -66 l-16 -47 -17 58 c-9 31 -18 57 -19 57 -1 0 -8 -4
-15 -8z"/>
<path d="M1755 1485 c-32 -31 -33 -77 -3 -105 26 -24 80 -27 98 -5 18 21 5 30
-24 17 -18 -8 -28 -7 -45 4 -34 24 -24 34 31 32 43 -3 53 0 56 14 4 23 -41 68
-68 68 -11 0 -32 -11 -45 -25z m75 -20 c11 -13 7 -15 -30 -15 -37 0 -41 2 -30
15 7 8 20 15 30 15 10 0 23 -7 30 -15z"/>
<path d="M1946 1501 c-3 -4 -17 -6 -31 -3 -25 4 -25 4 -25 -67 0 -65 2 -71 20
-71 19 0 21 6 19 51 -2 47 8 68 33 69 14 0 28 -39 28 -79 0 -31 4 -41 16 -41
25 0 15 117 -11 136 -21 16 -41 18 -49 5z"/>
<path d="M2157 1504 c-13 -13 -7 -99 8 -121 12 -17 24 -21 65 -20 l50 1 0 74
c0 64 -2 73 -17 70 -14 -2 -17 -13 -14 -55 2 -49 1 -53 -24 -59 -35 -9 -46 8
-43 65 3 41 -9 61 -25 45z"/>
<path d="M2310 1435 c0 -60 3 -75 15 -75 11 0 15 12 15 45 0 36 4 47 25 61 14
9 25 23 25 30 0 19 -15 18 -34 -2 -9 -8 -16 -11 -16 -6 0 6 -7 12 -15 16 -13
4 -15 -7 -15 -69z"/>
<path d="M2425 1485 c-30 -30 -32 -64 -4 -99 22 -28 75 -36 97 -14 21 21 13
28 -26 22 -28 -4 -41 -2 -51 10 -18 22 6 31 59 22 37 -6 40 -5 40 18 0 28 -42
66 -72 66 -10 0 -30 -11 -43 -25z m73 -22 c2 -9 -8 -13 -33 -13 -33 0 -36 2
-25 15 15 18 51 16 58 -2z"/>
<path d="M553 1374 c-30 -13 -32 -17 -26 -46 7 -40 8 -42 27 -35 13 5 43 85
34 92 -2 1 -18 -4 -35 -11z"/>
<path d="M1248 1190 l3 -90 50 0 c43 0 50 3 47 18 -2 13 -11 16 -36 14 l-32
-4 0 76 c0 66 -2 76 -17 76 -16 0 -18 -10 -15 -90z"/>
<path d="M1380 1192 l0 -87 50 -1 c40 -1 50 2 50 16 0 12 -8 15 -35 12 l-35
-4 0 76 c0 61 -3 76 -15 76 -12 0 -15 -16 -15 -88z"/>
<path d="M1523 1265 c-49 -34 -36 -126 21 -154 34 -16 100 -1 110 26 9 22 -2
30 -22 15 -31 -22 -44 -25 -70 -16 -38 13 -50 59 -25 93 26 34 49 38 77 12 15
-14 25 -17 36 -10 13 8 11 12 -9 29 -28 24 -88 26 -118 5z"/>
</g>
</svg>
