<svg height='100px' width='100px'  fill="#000000" xmlns:dc="http://purl.org/dc/elements/1.1/" xmlns:cc="http://creativecommons.org/ns#" xmlns:rdf="http://www.w3.org/1999/02/22-rdf-syntax-ns#" xmlns:svg="http://www.w3.org/2000/svg" xmlns="http://www.w3.org/2000/svg" xmlns:sodipodi="http://sodipodi.sourceforge.net/DTD/sodipodi-0.dtd" xmlns:inkscape="http://www.inkscape.org/namespaces/inkscape" viewBox="0 0 16.933333 16.933334" version="1.1" x="0px" y="0px"><svg:g transform="translate(0,6.35)"><svg:path style="color:#000000;font-style:normal;font-variant:normal;font-weight:normal;font-stretch:normal;font-size:medium;line-height:normal;font-family:sans-serif;font-variant-ligatures:normal;font-variant-position:normal;font-variant-caps:normal;font-variant-numeric:normal;font-variant-alternates:normal;font-feature-settings:normal;text-indent:0;text-align:start;text-decoration:none;text-decoration-line:none;text-decoration-style:solid;text-decoration-color:#000000;letter-spacing:normal;word-spacing:normal;text-transform:none;writing-mode:lr-tb;direction:ltr;text-orientation:mixed;dominant-baseline:auto;baseline-shift:baseline;text-anchor:start;white-space:normal;shape-padding:0;clip-rule:nonzero;display:inline;overflow:visible;visibility:visible;opacity:1;isolation:auto;mix-blend-mode:normal;color-interpolation:sRGB;color-interpolation-filters:linearRGB;solid-color:#000000;solid-opacity:1;vector-effect:none;fill:#000000;fill-opacity:1;fill-rule:nonzero;stroke:none;stroke-width:0.52916664;stroke-linecap:round;stroke-linejoin:round;stroke-miterlimit:4;stroke-dasharray:none;stroke-dashoffset:0;stroke-opacity:1;paint-order:stroke fill markers;color-rendering:auto;image-rendering:auto;shape-rendering:auto;text-rendering:auto;enable-background:accumulate" d="m 3.2776426,-5.55692 a 0.26460979,0.26460979 0 0 0 -0.025323,5.2e-4 0.26460979,0.26460979 0 0 0 -0.2346087,0.17777 l -0.4842086,1.39629 -1.4784626,0.0315 a 0.26460979,0.26460979 0 0 0 -0.1565804,0.47439 l 1.1797718,0.89452 -0.4278789,1.41387 a 0.26460979,0.26460979 0 0 0 0.4046246,0.29506996 L 3.2678242,-1.71841 4.4827353,-0.87299004 A 0.26460979,0.26460979 0 0 0 4.8868466,-1.16806 L 4.4589651,-2.58193 5.6371891,-3.47645 A 0.26460979,0.26460979 0 0 0 5.4826751,-3.95084 L 4.0042125,-3.98234 3.5179375,-5.37863 A 0.26460979,0.26460979 0 0 0 3.2776426,-5.55692 Z m -0.00982,1.07074 0.2966217,0.85162 a 0.26460979,0.26460979 0 0 0 0.24443,0.17777 l 0.9022715,0.0176 -0.71882,0.54674 a 0.26460979,0.26460979 0 0 0 -0.093535,0.28732 l 0.2614851,0.86144 -0.7400078,-0.51366 a 0.26460979,0.26460979 0 0 0 -0.3028236,0 l -0.7405238,0.51366 0.262001,-0.86144 A 0.26460979,0.26460979 0 0 0 2.5453857,-2.89245 L 1.8244994,-3.43919 2.7267708,-3.45679 A 0.26460979,0.26460979 0 0 0 2.97275,-3.63456 Z m 4.2736399,0.10335 a 0.26460979,0.26460979 0 0 0 -0.2640674,0.26561 v 1.85157 a 0.26460979,0.26460979 0 0 0 0.2640674,0.26562 h 8.3338595 a 0.26460979,0.26460979 0 0 0 0.265615,-0.26562 v -1.85157 a 0.26460979,0.26460979 0 0 0 -0.265615,-0.26561 z m 0.2656178,0.52968 H 15.61177 V -2.5292 H 7.8070816 Z m -4.5557942,3.60339996 a 0.26460979,0.26460979 0 0 0 -0.2335768,0.17777 L 2.5335007,1.32638 1.0550381,1.35588 A 0.26460979,0.26460979 0 0 0 0.8984577,1.83027 L 2.0782295,2.72479 1.6503506,4.14072 a 0.26460979,0.26460979 0 0 0 0.4046246,0.293 L 3.2678226,3.58985 4.4827337,4.43372 A 0.26460979,0.26460979 0 0 0 4.886845,4.14072 L 4.4589635,2.72479 5.6371875,1.83027 A 0.26460979,0.26460979 0 0 0 5.4826735,1.35588 L 4.0042109,1.32638 3.5179359,-0.07198004 a 0.26460979,0.26460979 0 0 0 -0.2402946,-0.17777 0.26460979,0.26460979 0 0 0 -0.026355,0 z m 0.016536,1.07229 L 3.5644438,1.67416 a 0.26460979,0.26460979 0 0 0 0.24443,0.17777 L 4.7090763,1.86953 3.9923253,2.4142 A 0.26460979,0.26460979 0 0 0 3.8987903,2.70152 L 4.1602754,3.56452 3.4202676,3.0493 a 0.26460979,0.26460979 0 0 0 -0.3028236,0 l -0.7405238,0.51522 0.262001,-0.863 A 0.26460979,0.26460979 0 0 0 2.5448702,2.4142 L 1.8265661,1.86953 2.7267712,1.85193 A 0.26460979,0.26460979 0 0 0 2.97275,1.67416 Z m 4.2478033,0.10335 A 0.26460979,0.26460979 0 0 0 7.2773946,1.18944 V 3.041 A 0.26460979,0.26460979 0 0 0 7.541462,3.30662 h 6.482291 A 0.26460979,0.26460979 0 0 0 14.287305,3.041 V 1.18944 A 0.26460979,0.26460979 0 0 0 14.023753,0.92588996 H 7.5414638 a 0.26460979,0.26460979 0 0 0 -0.025837,0 z M 7.8070798,1.45506 h 5.9531252 v 1.3224 H 7.8070816 Z M 3.2776408,5.05845 A 0.26460979,0.26460979 0 0 0 3.2523178,5.05897 0.26460979,0.26460979 0 0 0 3.0177091,5.23674 L 2.5335005,6.63303 1.0550379,6.66253 A 0.26460979,0.26460979 0 0 0 0.898459,7.13895 L 2.0782308,8.0314 1.6503519,9.44733 A 0.26460979,0.26460979 0 0 0 2.0549765,9.74241 L 3.2678239,8.89646 4.482735,9.74241 A 0.26460979,0.26460979 0 0 0 4.8868463,9.44733 L 4.4589648,8.0314 5.6371888,7.13895 A 0.26460979,0.26460979 0 0 0 5.4826748,6.66249 L 4.0042122,6.63299 3.5179372,5.2367 A 0.26460979,0.26460979 0 0 0 3.2776426,5.05845 Z m -0.00982,1.07074 0.2966217,0.85163 a 0.26460979,0.26460979 0 0 0 0.24443,0.17776 L 4.711144,7.17618 3.992324,7.72085 A 0.26460979,0.26460979 0 0 0 3.898789,8.01024 L 4.1602741,8.87117 3.4202663,8.35751 a 0.26460979,0.26460979 0 0 0 -0.3028236,0 L 2.3769189,8.87117 2.6389199,8.01024 A 0.26460979,0.26460979 0 0 0 2.5453839,7.72085 L 1.8265639,7.17618 2.726769,7.15858 A 0.26460979,0.26460979 0 0 0 2.97275,6.98082 Z M 7.5414607,6.23254 A 0.26460979,0.26460979 0 0 0 7.2773933,6.49816 V 8.34972 A 0.26460979,0.26460979 0 0 0 7.5414607,8.61328 H 12.172185 A 0.26460979,0.26460979 0 0 0 12.435736,8.34972 V 6.49816 A 0.26460979,0.26460979 0 0 0 12.172185,6.23254 Z M 7.8070785,6.76171 H 11.90657 v 1.3224 H 7.8070816 Z"></svg:path></svg:g></svg>